<?xml version="1.0" encoding="UTF-8" standalone="no"?>
<!DOCTYPE svg PUBLIC "-//W3C//DTD SVG 1.1//EN" "http://www.w3.org/Graphics/SVG/1.1/DTD/svg11.dtd">
<!-- Created with Vectornator (http://vectornator.io/) -->
<svg height="100%" stroke-miterlimit="10" style="fill-rule:nonzero;clip-rule:evenodd;stroke-linecap:round;stroke-linejoin:round;" version="1.1" viewBox="0 0 28 459" width="100%" xml:space="preserve" xmlns="http://www.w3.org/2000/svg" xmlns:vectornator="http://vectornator.io" xmlns:xlink="http://www.w3.org/1999/xlink">
<defs/>
<g id="Untitled" vectornator:layerName="Untitled">
<path d="M14 14L14 445" fill="none" opacity="1" stroke="#ffffff" stroke-linecap="butt" stroke-linejoin="miter" stroke-width="2" vectornator:layerName="line"/>
<path d="M14 162.62L14 445" fill="none" opacity="1" stroke="#00496a" stroke-linecap="butt" stroke-linejoin="miter" stroke-opacity="0.9" stroke-width="2" vectornator:layerName="line 1"/>
<path d="M7 307C7 303.134 10.134 300 14 300C17.866 300 21 303.134 21 307C21 310.866 17.866 314 14 314C10.134 314 7 310.866 7 307Z" fill="#00496a" fill-opacity="0.9" fill-rule="nonzero" opacity="1" stroke="none" vectornator:layerName="circle"/>
<path d="M7.5 307C7.5 303.41 10.4101 300.5 14 300.5C17.5899 300.5 20.5 303.41 20.5 307C20.5 310.59 17.5899 313.5 14 313.5C10.4101 313.5 7.5 310.59 7.5 307Z" fill="none" opacity="1" stroke="#00496a" stroke-linecap="butt" stroke-linejoin="miter" stroke-opacity="0.9" stroke-width="1" vectornator:layerName="circle"/>
<path d="M7 452C7 448.134 10.134 445 14 445C17.866 445 21 448.134 21 452C21 455.866 17.866 459 14 459C10.134 459 7 455.866 7 452Z" fill="#00496a" fill-opacity="0.9" fill-rule="nonzero" opacity="1" stroke="none" vectornator:layerName="circle"/>
<path d="M7.5 452C7.5 448.41 10.4101 445.5 14 445.5C17.5899 445.5 20.5 448.41 20.5 452C20.5 455.59 17.5899 458.5 14 458.5C10.4101 458.5 7.5 455.59 7.5 452Z" fill="none" opacity="1" stroke="#00496a" stroke-linecap="butt" stroke-linejoin="miter" stroke-opacity="0.9" stroke-width="1" vectornator:layerName="circle"/>
<path d="M0.5 162C0.5 154.544 6.54416 148.5 14 148.5C21.4558 148.5 27.5 154.544 27.5 162C27.5 169.456 21.4558 175.5 14 175.5C6.54416 175.5 0.5 169.456 0.5 162Z" fill="#ffffff" fill-rule="nonzero" opacity="1" stroke="#00496a" stroke-linecap="butt" stroke-linejoin="miter" stroke-opacity="0.9" stroke-width="1" vectornator:layerName="circle"/>
<path d="M7 7C7 3.13401 10.134 0 14 0C17.866 0 21 3.13401 21 7C21 10.866 17.866 14 14 14C10.134 14 7 10.866 7 7Z" fill="#ffffff" fill-rule="nonzero" opacity="1" stroke="none" vectornator:layerName="circle"/>
<path d="M7.5 7C7.5 3.41015 10.4101 0.5 14 0.5C17.5899 0.5 20.5 3.41015 20.5 7C20.5 10.5899 17.5899 13.5 14 13.5C10.4101 13.5 7.5 10.5899 7.5 7Z" fill="none" opacity="1" stroke="#ffffff" stroke-linecap="butt" stroke-linejoin="miter" stroke-width="1" vectornator:layerName="circle"/>
</g>
</svg>
