<?xml version="1.0" encoding="UTF-8" standalone="no"?>
<!DOCTYPE svg PUBLIC "-//W3C//DTD SVG 1.1//EN" "http://www.w3.org/Graphics/SVG/1.1/DTD/svg11.dtd">
<!-- Created with Vectornator (http://vectornator.io/) -->
<svg height="100%" stroke-miterlimit="10" style="fill-rule:nonzero;clip-rule:evenodd;stroke-linecap:round;stroke-linejoin:round;" version="1.1" viewBox="0 0 28 473" width="100%" xml:space="preserve" xmlns="http://www.w3.org/2000/svg" xmlns:vectornator="http://vectornator.io" xmlns:xlink="http://www.w3.org/1999/xlink">
<defs/>
<g id="Untitled" vectornator:layerName="Untitled">
<path d="M14 14L14 445" fill="none" opacity="1" stroke="#ffffff" stroke-linecap="butt" stroke-linejoin="miter" stroke-width="2" vectornator:layerName="line"/>
<path d="M7 307C7 303.134 10.134 300 14 300C17.866 300 21 303.134 21 307C21 310.866 17.866 314 14 314C10.134 314 7 310.866 7 307Z" fill="#ffffff" fill-rule="nonzero" opacity="1" stroke="none" vectornator:layerName="circle"/>
<path d="M7.5 307C7.5 303.41 10.4101 300.5 14 300.5C17.5899 300.5 20.5 303.41 20.5 307C20.5 310.59 17.5899 313.5 14 313.5C10.4101 313.5 7.5 310.59 7.5 307Z" fill="none" opacity="1" stroke="#ffffff" stroke-linecap="butt" stroke-linejoin="miter" stroke-width="1" vectornator:layerName="circle"/>
<path d="M0.5 459C0.5 451.544 6.54416 445.5 14 445.5C21.4558 445.5 27.5 451.544 27.5 459C27.5 466.456 21.4558 472.5 14 472.5C6.54416 472.5 0.5 466.456 0.5 459Z" fill="#ffffff" fill-rule="nonzero" opacity="1" stroke="#00496a" stroke-linecap="butt" stroke-linejoin="miter" stroke-opacity="0.9" stroke-width="1" vectornator:layerName="circle"/>
<path d="M7 155C7 151.134 10.134 148 14 148C17.866 148 21 151.134 21 155C21 158.866 17.866 162 14 162C10.134 162 7 158.866 7 155Z" fill="#ffffff" fill-rule="nonzero" opacity="1" stroke="none" vectornator:layerName="circle"/>
<path d="M7.5 155C7.5 151.41 10.4101 148.5 14 148.5C17.5899 148.5 20.5 151.41 20.5 155C20.5 158.59 17.5899 161.5 14 161.5C10.4101 161.5 7.5 158.59 7.5 155Z" fill="none" opacity="1" stroke="#ffffff" stroke-linecap="butt" stroke-linejoin="miter" stroke-width="1" vectornator:layerName="circle"/>
<path d="M7 7C7 3.13401 10.134 0 14 0C17.866 0 21 3.13401 21 7C21 10.866 17.866 14 14 14C10.134 14 7 10.866 7 7Z" fill="#ffffff" fill-rule="nonzero" opacity="1" stroke="none" vectornator:layerName="circle"/>
<path d="M7.5 7C7.5 3.41015 10.4101 0.5 14 0.5C17.5899 0.5 20.5 3.41015 20.5 7C20.5 10.5899 17.5899 13.5 14 13.5C10.4101 13.5 7.5 10.5899 7.5 7Z" fill="none" opacity="1" stroke="#ffffff" stroke-linecap="butt" stroke-linejoin="miter" stroke-width="1" vectornator:layerName="circle"/>
</g>
</svg>
